<svg xmlns="http://www.w3.org/2000/svg" width="64" height="64" viewBox="0 0 64 64">
  <defs>
    <linearGradient id="chipGold" x1="0" y1="0" x2="1" y2="1">
      <stop offset="0%" stop-color="#9D8CFF"/>
      <stop offset="45%" stop-color="#8B5CF6"/>
      <stop offset="100%" stop-color="#E0539B"/>
    </linearGradient>
  </defs>
  <!-- corpo da ficha -->
  <circle cx="32" cy="32" r="30" fill="url(#chipGold)"/>
  <!-- 8 entalhes escuros arredondados na borda (efeito de ficha de cassino) -->
  <g fill="#0E0E1A">
    <rect x="29.5" y="2.5" width="5" height="7" rx="2.5"/>
    <rect x="29.5" y="2.5" width="5" height="7" rx="2.5" transform="rotate(45 32 32)"/>
    <rect x="29.5" y="2.5" width="5" height="7" rx="2.5" transform="rotate(90 32 32)"/>
    <rect x="29.5" y="2.5" width="5" height="7" rx="2.5" transform="rotate(135 32 32)"/>
    <rect x="29.5" y="2.5" width="5" height="7" rx="2.5" transform="rotate(180 32 32)"/>
    <rect x="29.5" y="2.5" width="5" height="7" rx="2.5" transform="rotate(225 32 32)"/>
    <rect x="29.5" y="2.5" width="5" height="7" rx="2.5" transform="rotate(270 32 32)"/>
    <rect x="29.5" y="2.5" width="5" height="7" rx="2.5" transform="rotate(315 32 32)"/>
  </g>
  <!-- disco central escuro + anel dourado em volta -->
  <circle cx="32" cy="32" r="22" fill="#0E0E1A"/>
  <circle cx="32" cy="32" r="22" fill="none" stroke="url(#chipGold)" stroke-width="1.6"/>
  <!-- espada central -->
  <g transform="translate(17,17.6) scale(1.25)">
    <path fill="url(#chipGold)"
          d="M12 2C9 7 4 9 4 13.5C4 16 6 17.5 8 17.5C9 17.5 10 17 10.5 16.3C10.4 18.5 9.6 20 8.5 21H15.5C14.4 20 13.6 18.5 13.5 16.3C14 17 15 17.5 16 17.5C18 17.5 20 16 20 13.5C20 9 15 7 12 2Z"/>
  </g>
</svg>
